/* XPM */
static char * stone_xpm[] = {
"16 16 161 2",
"  	c #A8B09D",
". 	c #A2B19A",
"+ 	c #A3B29B",
"@ 	c #96A68E",
"# 	c #84937C",
"$ 	c #697861",
"% 	c #4A5941",
"& 	c #485840",
"* 	c #A4B49C",
"= 	c #A0AF98",
"- 	c #6C7C64",
"; 	c #47563F",
"> 	c #828775",
", 	c #ACACAC",
"' 	c #ABABAB",
") 	c #5B5B5B",
"! 	c #737373",
"~ 	c #1E1E1E",
"{ 	c #505050",
"] 	c #AAAAAA",
"^ 	c #4F4F4F",
"/ 	c #727272",
"( 	c #818181",
"_ 	c #717171",
": 	c #868686",
"< 	c #2D2D2D",
"[ 	c #626262",
"} 	c #989395",
"| 	c #252525",
"1 	c #4D4D4D",
"2 	c #A8A8A8",
"3 	c #797979",
"4 	c #282828",
"5 	c #1C1C1C",
"6 	c #848484",
"7 	c #747474",
"8 	c #4E4E4E",
"9 	c #7D797A",
"0 	c #656565",
"a 	c #393939",
"b 	c #B2B2B2",
"c 	c #5D5D5D",
"d 	c #898989",
"e 	c #2F2F2F",
"f 	c #2A2A2A",
"g 	c #A1A1A1",
"h 	c #524E4F",
"i 	c #A9A9A9",
"j 	c #7B7B7B",
"k 	c #787878",
"l 	c #303030",
"m 	c #9D9D9D",
"n 	c #989596",
"o 	c #949293",
"p 	c #444242",
"q 	c #737071",
"r 	c #A5A2A3",
"s 	c #514C4E",
"t 	c #6A6A6A",
"u 	c #6D6D6D",
"v 	c #7F7F7F",
"w 	c #A4A4A4",
"x 	c #BFBFBF",
"y 	c #6F6D6D",
"z 	c #7D7B7B",
"A 	c #585556",
"B 	c #504D4E",
"C 	c #262123",
"D 	c #342F31",
"E 	c #585858",
"F 	c #535353",
"G 	c #545454",
"H 	c #828282",
"I 	c #9A9A9A",
"J 	c #6A6869",
"K 	c #747172",
"L 	c #4A4748",
"M 	c #484848",
"N 	c #A2A2A2",
"O 	c #424242",
"P 	c #525152",
"Q 	c #3F3F3F",
"R 	c #7D7D7D",
"S 	c #767474",
"T 	c #2E2B2C",
"U 	c #BCB9BA",
"V 	c #181818",
"W 	c #B6B6B6",
"X 	c #6F6F6F",
"Y 	c #545253",
"Z 	c #403E3F",
"` 	c #343230",
" .	c #151312",
"..	c #C2BEBD",
"+.	c #ABA6A6",
"@.	c #AFAFAF",
"#.	c #323232",
"$.	c #B3B3B3",
"%.	c #898687",
"&.	c #545251",
"*.	c #BAB8B6",
"=.	c #767271",
"-.	c #9C9C9C",
";.	c #6B6B6B",
">.	c #8C8C8C",
",.	c #555352",
"'.	c #52504E",
").	c #959090",
"!.	c #7D7978",
"~.	c #959595",
"{.	c #707070",
"].	c #878787",
"^.	c #312F30",
"/.	c #454344",
"(.	c #A3A1A0",
"_.	c #504E4C",
":.	c #544F4E",
"<.	c #2F2B2A",
"[.	c #A7A6A7",
"}.	c #2B2B2B",
"|.	c #565656",
"1.	c #ADAAAB",
"2.	c #757371",
"3.	c #55504F",
"4.	c #524E4D",
"5.	c #646464",
"6.	c #ADADAD",
"7.	c #B0B0B0",
"8.	c #2C2C2C",
"9.	c #555555",
"0.	c #C4C4C4",
"a.	c #9F9C9D",
"b.	c #8B8987",
"c.	c #787675",
"d.	c #827E7D",
"e.	c #2C2827",
"f.	c #696969",
"g.	c #7E7E7E",
"h.	c #343434",
"i.	c #999999",
"j.	c #757273",
"k.	c #888586",
"l.	c #82807E",
"m.	c #8C8A89",
"n.	c #34302F",
"o.	c #2E2A29",
"p.	c #756A75",
"q.	c #706670",
"r.	c #6D626D",
"s.	c #483D47",
"t.	c #241923",
"u.	c #312731",
"v.	c #574C56",
"w.	c #AEA3AE",
"x.	c #7C717C",
"y.	c #514651",
"z.	c #594E59",
"A.	c #42373F",
"B.	c #3F353D",
"C.	c #352931",
"D.	c #5E515A",
"  . + @ # $ % & & + * = - ; * > ",
", ' ) ! ~ { ] , ^ / ( _ : < [ } ",
"{ ! ! | 1 ] 2 3 4 5 6 7 < 1 8 9 ",
"0 a | 8 b c d 7 e ^ f e { g b h ",
", ] { ^ i j k l { m n o p q r s ",
"t k _ { u v ! f w x y z A B C D ",
"/ / ! { E e e F G H I / J q K L ",
"! / 4 M N ' ^ O P Q f R S T A U ",
"_ V 8 W i ! [ , g X Y Z `  ...+.",
"H 1 i @.R #.i c $.: %.B &.*.=.=.",
"1 -.;./ ! 4 , >./ ! z T ,.'.).!.",
"^ { ~.{.[ < 7 ! ].! ^./.(._.:.<.",
"[.] }.f f }.|./ a 4 1.n 2.2.3.4.",
"b {.5.6.g 7.{ 8.9.0.a.S b.c.d.e.",
"f.g.h.i.3 t {.P ^ F j.k.l.m.n.o.",
"p.q.r.s.t.t.u.v.w.x.y.z.A.B.C.D."};
